<svg width="25" height="25" viewBox="0 0 17 16" fill="none" xmlns="http://www.w3.org/2000/svg">
<path d="M8.45993 9.58098H8.55993C9.67993 9.58098 10.7733 8.88098 11.4333 7.75432L11.6866 7.32098L10.8199 6.82098L10.5666 7.25432C10.1866 7.90765 9.45326 8.63432 8.5066 8.58098C7.57326 8.61432 6.8466 7.90765 6.4666 7.25432L6.21327 6.82098L5.3466 7.32098L5.59993 7.75432C6.25993 8.88765 7.35993 9.58098 8.45993 9.58098Z" fill="#FE8C00"/>
<path fill-rule="evenodd" clip-rule="evenodd" d="M8.29996 14.0278L8.49996 14.1145L8.69996 14.0278C11.84 12.6345 15.1866 9.90115 15.1666 6.40115C15.16 4.32781 14.0133 2.67448 12.18 2.08115C10.7733 1.62781 9.48663 1.96781 8.49996 3.04115C7.51329 1.96781 6.22662 1.62781 4.81996 2.08115C2.98662 2.67448 1.83996 4.32781 1.83329 6.40115C1.81996 9.90781 5.16662 12.6411 8.29996 14.0278ZM5.12663 3.03448C5.43329 2.93448 5.71996 2.88781 5.99996 2.88781V2.88115C6.81329 2.88115 7.51329 3.30115 8.08662 4.12781L8.49996 4.71448L8.91329 4.12781C9.68662 3.02115 10.6866 2.64781 11.8733 3.03448C13.5533 3.58115 14.1666 5.13448 14.1666 6.40781C14.18 9.35448 11.1666 11.7878 8.49996 13.0211C5.83329 11.7878 2.81996 9.35448 2.83329 6.40781C2.83329 5.13448 3.43996 3.57448 5.12663 3.03448Z" fill="#FE8C00"/>
</svg>
