<svg width="25" height="25" viewBox="0 0 17 16" fill="none" xmlns="http://www.w3.org/2000/svg">
<path fill-rule="evenodd" clip-rule="evenodd" d="M9.93763 7.26886H10.5346L13.4467 12.1536L13.0744 12.6402H4.09053L3.78247 12.1335L5.5759 8.81321H6.07082L8.02915 9.80144L9.93763 7.26886ZM10.174 8.61684L8.32478 11.0707L6.09959 9.94784L5.18547 11.6402H11.9764L10.174 8.61684Z" fill="black"/>
<path fill-rule="evenodd" clip-rule="evenodd" d="M6.17147 4.62762C5.74039 4.62776 5.39136 4.97688 5.39136 5.40799C5.39136 5.83918 5.74052 6.18835 6.17172 6.18835C6.60292 6.18835 6.95208 5.83918 6.95208 5.40799C6.95208 4.97735 6.60342 4.62821 6.17147 4.62762ZM4.39136 5.40799C4.39136 4.42451 5.18824 3.62762 6.17172 3.62762H6.17224C7.15484 3.62864 7.95208 4.42404 7.95208 5.40799C7.95208 6.39147 7.1552 7.18835 6.17172 7.18835C5.18824 7.18835 4.39136 6.39147 4.39136 5.40799Z" fill="black"/>
<path fill-rule="evenodd" clip-rule="evenodd" d="M1.83325 14.6667L1.83325 1.33335L15.1666 1.33335L15.1666 14.6667L1.83325 14.6667ZM2.83325 13.6667L14.1666 13.6667L14.1666 2.33335L2.83325 2.33335L2.83325 13.6667Z" fill="black"/>
</svg>
