<svg width="25" height="25" viewBox="0 0 20 20" fill="none" xmlns="http://www.w3.org/2000/svg">
<path fill-rule="evenodd" clip-rule="evenodd" d="M9 9.29297V11.9843H8V9.29297H9Z" fill="black"/>
<path fill-rule="evenodd" clip-rule="evenodd" d="M1.83667 3.41992H15.1633V8.53994L14.9159 8.68476C13.1902 9.69493 10.9343 10.2933 8.49667 10.2933C6.05875 10.2933 3.80956 9.6948 2.08408 8.68476L1.83667 8.53994V3.41992ZM2.83667 4.41992V7.96126C4.36037 8.78876 6.33362 9.29326 8.49667 9.29326C10.66 9.29326 12.6392 8.78864 14.1633 7.96123V4.41992H2.83667Z" fill="black"/>
<path fill-rule="evenodd" clip-rule="evenodd" d="M6.505 1.69989H10.4953L11.4908 4.00116L10.573 4.39821L9.83831 2.69989H7.1619L6.42705 4.39823L5.50928 4.00112L6.505 1.69989Z" fill="black"/>
<path fill-rule="evenodd" clip-rule="evenodd" d="M2.83535 9.61194L2.96193 13.3001H14.0377L14.1642 9.61194L15.1636 9.64624L15.0039 14.3001H1.99566L1.83594 9.64624L2.83535 9.61194Z" fill="black"/>
</svg>
