<svg width="40" height="40" viewBox="0 0 24 24" fill="none" xmlns="http://www.w3.org/2000/svg">
<path d="M12.0001 20.4519L11.7001 20.3264C6.99006 18.3074 1.98006 14.3468 2.00006 9.26562C2.01006 6.27101 3.73006 3.86566 6.48006 3.01558C8.59006 2.35869 10.5201 2.85136 12.0001 4.40662C13.4801 2.85136 15.4101 2.35869 17.5201 3.01558C20.2701 3.87532 21.9901 6.27101 22.0001 9.27528C22.0301 14.3468 17.0101 18.3074 12.3001 20.3264L12.0001 20.4519ZM8.25006 4.17478C7.83006 4.17478 7.40006 4.2424 6.94006 4.3873C4.41006 5.16976 3.50006 7.43021 3.50006 9.27528C3.48006 13.545 8.00006 17.0709 12.0001 18.858C16.0001 17.0709 20.5201 13.545 20.5001 9.27528C20.5001 7.43021 19.5801 5.17942 17.0601 4.3873C15.2701 3.82702 13.7801 4.36798 12.6201 5.97155L12.0001 6.82163L11.3801 5.97155C10.5201 4.7737 9.47006 4.16512 8.25006 4.16512V4.17478Z" fill="#FE8C00"/>
</svg>
